<svg xmlns="http://www.w3.org/2000/svg" xmlns:xlink="http://www.w3.org/1999/xlink" version="1.1" x="0px" y="0px" viewBox="-24 26 100 125" style="enable-background:new -24 26 100 100;" xml:space="preserve"><g><path d="M74.3,77.8c0-0.3-0.1-0.6-0.4-0.8l-62-45.3c-0.3-0.3-0.8-0.3-1.1-0.1l-32.6,19.3c-0.3,0.1-0.5,0.5-0.5,0.8   v0.1l0,0v22.4c0,0.3,0.1,0.6,0.4,0.8l62,45.3c0.2,0.1,0.4,0.2,0.6,0.2c0.2,0,0.3-0.1,0.5-0.1l32.6-19.2c0.3-0.2,0.5-0.5,0.5-0.8   V77.8L74.3,77.8z M53,77.6c1.3,1,3.2,1.5,5.2,1.5c2.1,0,3.9-0.6,5.2-1.5V78c0,1.7-2.4,3.2-5.2,3.2S53,79.7,53,78V77.6z M58.3,77.2   c-2.8,0-5.2-1.5-5.2-3.2s2.4-3.2,5.2-3.2s5.2,1.4,5.2,3.2C63.5,75.7,61.1,77.2,58.3,77.2z M37.6,66.3c1.3,1,3.2,1.5,5.2,1.5   c2.1,0,3.9-0.6,5.2-1.5v0.4c0,1.7-2.4,3.2-5.2,3.2s-5.2-1.4-5.2-3.2V66.3z M42.8,65.9c-2.8,0-5.2-1.4-5.2-3.2   c0-1.7,2.4-3.2,5.2-3.2S48,61,48,62.7C48,64.4,45.6,65.9,42.8,65.9z M22.1,55c1.3,1,3.2,1.5,5.2,1.5c2,0,3.9-0.6,5.2-1.5v0.4   c0,1.7-2.4,3.2-5.2,3.2c-2.8,0-5.2-1.4-5.2-3.2C22.1,55.4,22.1,55,22.1,55z M27.4,54.5c-2.8,0-5.2-1.5-5.2-3.2s2.4-3.2,5.2-3.2   c2.8,0,5.2,1.4,5.2,3.2C32.6,53.1,30.2,54.5,27.4,54.5z M6.6,43.7c1.3,1,3.2,1.5,5.2,1.5c2.1,0,3.9-0.6,5.2-1.5v0.4   c0,1.7-2.4,3.2-5.2,3.2s-5.2-1.4-5.2-3.2C6.6,44.1,6.6,43.7,6.6,43.7z M11.9,43.3c-2.8,0-5.2-1.4-5.2-3.2s2.4-3.2,5.2-3.2   s5.2,1.5,5.2,3.2C17.1,41.8,14.7,43.3,11.9,43.3z M11.3,33.7l1.8,1.3c-0.4-0.1-0.8-0.1-1.2-0.1c-4.1,0-7.3,2.3-7.3,5.2v4   c0,2.9,3.2,5.2,7.3,5.2s7.3-2.3,7.3-5.2v-4c0-0.3,0-0.5-0.1-0.7l9.4,7c-0.4-0.1-0.8-0.1-1.2-0.1c-4.1,0-7.3,2.3-7.3,5.2v4   c0,2.9,3.2,5.2,7.3,5.2s7.3-2.3,7.3-5.2v-4c0-0.3,0-0.5-0.1-0.7l9.5,6.9c-0.4-0.1-0.8-0.1-1.2-0.1c-4.1,0-7.3,2.3-7.3,5.2v4   c0,2.9,3.2,5.2,7.3,5.2s7.3-2.3,7.3-5.2v-4c0-0.3,0-0.5-0.1-0.7l9.5,6.9c-0.4-0.1-0.8-0.1-1.2-0.1c-4.1,0-7.3,2.3-7.3,5.2v4   c0,2.9,3.2,5.2,7.3,5.2s7.3-2.3,7.3-5.2v-4c0-0.3,0-0.5-0.1-0.7l6,4.4L40.9,95.7l-60.3-43.9L11.3,33.7z M-20.3,53.6l59.9,43.8v19.9   l-59.9-43.8V53.6z M41.7,117.6v-20l30.6-18v20L41.7,117.6z"/><path d="M-4.6,44.6c-4.1,0-7.3,2.3-7.3,5.2v4c0,2.9,3.2,5.2,7.3,5.2s7.3-2.3,7.3-5.2v-4C2.6,46.9-0.5,44.6-4.6,44.6   z M-4.6,57c-2.8,0-5.2-1.5-5.2-3.2v-0.4c1.3,1,3.2,1.5,5.2,1.5s3.9-0.6,5.2-1.5v0.4C0.6,55.5-1.7,57-4.6,57z M-4.6,53   c-2.8,0-5.2-1.5-5.2-3.2s2.4-3.2,5.2-3.2s5.2,1.4,5.2,3.2C0.6,51.5-1.7,53-4.6,53z"/><path d="M10.9,55.9c-4.1,0-7.3,2.3-7.3,5.2v4c0,2.9,3.2,5.2,7.3,5.2s7.3-2.3,7.3-5.2v-4   C18.1,58.2,14.9,55.9,10.9,55.9z M10.9,68.2c-2.8,0-5.2-1.4-5.2-3.2v-0.4c1.3,1,3.2,1.5,5.2,1.5s3.9-0.6,5.2-1.5V65   C16.1,66.8,13.7,68.2,10.9,68.2z M10.9,64.3c-2.8,0-5.2-1.4-5.2-3.2c0-1.7,2.4-3.2,5.2-3.2s5.2,1.5,5.2,3.2   C16.1,62.8,13.7,64.3,10.9,64.3z"/><path d="M26.3,67.3c-4.1,0-7.3,2.3-7.3,5.2v4c0,2.9,3.2,5.2,7.3,5.2s7.3-2.3,7.3-5.2v-4   C33.5,69.5,30.4,67.3,26.3,67.3z M26.3,79.6c-2.8,0-5.2-1.5-5.2-3.2V76c1.3,1,3.2,1.5,5.2,1.5s3.9-0.6,5.2-1.5v0.4   C31.5,78.1,29.2,79.6,26.3,79.6z M26.3,75.6c-2.8,0-5.2-1.5-5.2-3.2s2.4-3.2,5.2-3.2c2.8,0,5.2,1.4,5.2,3.2S29.2,75.6,26.3,75.6z"/><path d="M49,87.8v-4c0-2.9-3.2-5.2-7.3-5.2s-7.3,2.3-7.3,5.2v4c0,2.9,3.2,5.2,7.3,5.2S49,90.6,49,87.8z M41.8,80.6   c2.8,0,5.2,1.5,5.2,3.2S44.6,87,41.8,87s-5.2-1.4-5.2-3.2S38.9,80.6,41.8,80.6z M36.6,87.8v-0.4c1.3,1,3.2,1.5,5.2,1.5   s3.9-0.6,5.2-1.5v0.4c0,1.7-2.4,3.2-5.2,3.2S36.6,89.4,36.6,87.8z"/></g><text x="-24" y="141" fill="#000000" font-size="5px" font-weight="bold" font-family="'Helvetica Neue', Helvetica, Arial-Unicode, Arial, Sans-serif">Created by Gerardo Martín Martínez</text><text x="-24" y="146" fill="#000000" font-size="5px" font-weight="bold" font-family="'Helvetica Neue', Helvetica, Arial-Unicode, Arial, Sans-serif">from the Noun Project</text></svg>